<?xml version="1.0" standalone="no"?>
<!DOCTYPE svg PUBLIC "-//W3C//DTD SVG 20010904//EN"
 "http://www.w3.org/TR/2001/REC-SVG-20010904/DTD/svg10.dtd">
<svg version="1.0" xmlns="http://www.w3.org/2000/svg"
 width="960.000000pt" height="1280.000000pt" viewBox="0 0 960.000000 1280.000000"
 preserveAspectRatio="xMidYMid meet">
<metadata>
Created by potrace 1.16, written by Peter Selinger 2001-2019
</metadata>
<g transform="translate(0.000000,1280.000000) scale(0.100000,-0.100000)"
fill="#000000" stroke="none">
<path d="M5075 12560 c-27 -4 -53 -5 -57 -3 -4 2 -9 -1 -12 -6 -9 -15 14 -25
27 -12 14 14 87 14 87 0 0 -6 -7 -9 -15 -5 -8 3 -18 -1 -22 -8 -11 -18 -63
-30 -63 -14 0 9 -3 9 -12 0 -14 -14 -68 -16 -68 -3 0 5 9 11 20 14 14 3 18 10
14 22 -6 14 -10 14 -33 -7 -41 -36 -62 -44 -111 -42 -53 3 -102 -5 -96 -15 3
-4 -13 -8 -34 -8 -21 -1 -52 -9 -69 -17 -16 -9 -37 -16 -46 -16 -8 0 -15 -4
-15 -10 0 -5 -8 -10 -18 -10 -10 0 -22 -4 -28 -10 -5 -5 -34 -14 -64 -20 -30
-6 -74 -23 -99 -40 -31 -20 -48 -25 -52 -18 -6 9 -14 9 -34 0 -40 -18 -99 -15
-128 8 -14 11 -36 20 -50 20 -14 0 -27 5 -29 11 -3 9 -9 9 -25 0 -27 -14 -70
-14 -78 -1 -9 15 -25 12 -19 -3 2 -7 -5 -22 -17 -33 l-22 -19 7 28 c5 19 3 27
-7 27 -19 0 -107 -68 -107 -82 0 -6 -3 -8 -7 -5 -3 4 -15 -1 -26 -10 -11 -10
-17 -12 -13 -5 4 6 -8 3 -26 -7 -21 -12 -54 -19 -88 -20 -39 0 -59 -6 -67 -18
-7 -9 -29 -18 -49 -19 -20 -2 -42 -8 -48 -14 -7 -5 -16 -7 -19 -3 -4 3 -7 1
-7 -5 0 -7 -9 -12 -19 -12 -11 0 -23 -5 -26 -10 -8 -12 -76 -44 -89 -41 -5 1
-15 -7 -23 -19 -8 -11 -20 -20 -28 -20 -9 0 -12 -6 -8 -16 3 -9 -2 -21 -14
-29 -11 -8 -26 -28 -33 -45 -7 -16 -19 -30 -27 -30 -9 0 -13 -6 -9 -15 7 -20
-3 -45 -19 -45 -8 0 -11 -9 -8 -24 3 -13 -1 -27 -8 -31 -9 -6 -11 -2 -6 14 4
18 3 20 -8 11 -11 -9 -11 -16 -3 -29 6 -10 8 -30 4 -46 -5 -21 -10 -25 -16
-16 -10 16 -30 6 -30 -16 0 -32 -39 -71 -76 -75 -36 -4 -56 8 -34 22 8 5 7 9
-4 13 -10 4 -16 1 -16 -8 0 -8 -7 -15 -16 -15 -11 0 -14 6 -9 23 5 19 5 20 -5
4 -9 -14 -8 -22 2 -34 11 -14 10 -15 -11 -8 -16 5 -21 4 -17 -4 4 -6 2 -11 -3
-11 -6 0 -10 -8 -9 -17 3 -36 -2 -53 -16 -53 -15 0 -46 -42 -46 -62 0 -15 -27
-41 -53 -51 -9 -3 -17 -16 -17 -27 0 -12 -4 -19 -8 -16 -5 3 -23 -8 -41 -25
-27 -24 -31 -32 -21 -44 10 -12 9 -15 -5 -15 -9 0 -19 9 -22 19 -4 17 -8 18
-23 8 -15 -9 -23 -8 -37 5 -16 14 -21 14 -47 -1 -16 -9 -33 -27 -37 -39 -6
-16 -5 -21 2 -16 6 3 4 -7 -4 -22 -17 -33 -90 -104 -106 -104 -5 0 -14 -6 -18
-14 -4 -7 -18 -18 -30 -25 -13 -6 -23 -16 -23 -22 0 -5 14 -3 30 6 17 9 30 12
31 8 0 -5 4 1 8 12 7 16 9 12 9 -16 0 -20 -4 -42 -10 -50 -7 -10 -8 -6 -3 14
4 19 2 26 -5 22 -5 -3 -10 -13 -10 -20 0 -8 -13 -21 -29 -29 -40 -21 -94 -96
-80 -112 7 -9 0 -14 -30 -19 -22 -4 -45 -4 -51 0 -5 3 -10 1 -10 -5 0 -6 7
-13 15 -16 16 -7 21 -44 5 -44 -5 0 -13 7 -18 16 -7 13 -13 14 -31 5 -11 -7
-21 -17 -22 -24 -3 -59 -24 -110 -69 -172 -16 -22 -29 -46 -30 -52 0 -7 -6
-13 -14 -13 -18 0 -25 -20 -19 -52 3 -15 -2 -31 -11 -41 -17 -16 -22 -57 -8
-57 4 0 8 -17 8 -37 0 -21 3 -57 7 -80 5 -26 4 -43 -1 -43 -6 0 -13 -7 -16
-16 -5 -13 -4 -14 7 -6 26 22 29 2 11 -88 -5 -24 -5 -24 9 -6 13 18 14 18 20
-4 6 -23 7 -23 26 -6 19 17 20 17 36 -13 9 -18 13 -37 9 -43 -4 -6 -3 -8 3 -5
17 10 13 -56 -4 -75 -13 -15 -14 -25 -4 -62 6 -25 11 -56 11 -70 0 -14 5 -26
10 -26 6 0 10 6 10 13 0 9 2 9 9 -1 4 -7 6 -24 3 -38 l-4 -24 -28 20 c-44 32
-89 19 -59 -16 10 -13 10 -17 -2 -25 -16 -10 -28 -12 -47 -10 -10 2 -11 -2 -2
-19 6 -11 9 -24 6 -28 -8 -14 60 -83 90 -91 27 -7 29 -11 27 -52 -1 -41 -1
-43 13 -24 15 20 15 20 33 -4 10 -13 16 -33 13 -44 -4 -17 -2 -18 17 -8 12 7
19 16 16 22 -4 5 -2 9 4 9 16 0 24 -20 13 -33 -15 -19 -10 -51 10 -65 10 -7
18 -20 18 -28 0 -16 26 -19 35 -4 12 20 25 9 25 -21 0 -26 -3 -30 -22 -25 -13
3 -17 3 -10 0 12 -6 17 -46 6 -57 -10 -10 -54 -140 -54 -160 0 -11 13 -24 34
-32 19 -8 37 -19 41 -25 3 -5 16 -10 28 -10 31 0 48 -40 31 -71 -18 -33 -17
-39 5 -39 23 0 40 -55 22 -73 -14 -14 -14 -37 -1 -37 6 0 10 9 10 21 0 14 5
19 14 16 9 -4 17 2 21 13 3 10 12 21 20 23 21 9 25 -18 7 -44 -9 -13 -15 -32
-14 -41 2 -10 -2 -27 -9 -39 -9 -18 -9 -25 5 -34 8 -7 13 -14 10 -17 -3 -3 -1
-21 4 -39 6 -25 14 -34 30 -35 15 -1 22 5 22 17 0 11 6 19 14 19 11 0 14 -10
10 -42 -9 -81 -9 -91 4 -95 7 -3 12 4 12 16 0 11 4 22 8 25 4 3 8 -25 8 -62
-1 -64 13 -123 55 -237 11 -31 20 -89 23 -150 2 -55 9 -111 14 -125 5 -14 12
-61 16 -104 7 -76 6 -79 -11 -65 -10 8 -21 17 -24 21 -3 5 -13 2 -23 -5 -18
-13 -18 -17 -2 -106 10 -51 26 -116 36 -144 26 -71 70 -216 70 -228 0 -6 7
-17 15 -25 8 -9 15 -24 15 -35 0 -22 11 -24 28 -7 20 20 25 0 9 -34 -8 -18
-13 -45 -10 -59 3 -16 -1 -32 -12 -42 -26 -27 -22 -190 5 -207 12 -7 11 -10
-3 -16 -21 -8 -22 -24 -2 -24 18 0 19 -22 1 -153 -7 -58 -9 -100 -3 -104 5 -3
6 -20 3 -38 -4 -19 -2 -36 4 -40 5 -3 10 -19 10 -35 0 -15 5 -30 11 -32 18 -6
-11 -78 -31 -78 -9 0 -21 12 -27 28 l-11 27 -1 -27 c-1 -23 -6 -28 -26 -28
-25 0 -25 1 -25 79 0 57 -4 84 -15 95 -8 8 -15 26 -15 40 0 24 -4 26 -39 26
-23 0 -41 5 -43 13 -4 9 -47 13 -161 15 -152 3 -157 4 -176 28 -11 14 -29 24
-45 24 -16 0 -37 11 -54 29 -26 28 -30 29 -80 22 -46 -7 -56 -5 -65 11 -7 10
-17 18 -24 18 -6 0 -14 6 -17 13 -5 10 -7 10 -12 0 -3 -7 -23 -13 -45 -13 -29
0 -39 4 -39 16 0 14 -8 16 -58 11 -46 -5 -61 -2 -80 13 -12 10 -22 25 -22 34
0 12 -10 16 -40 16 -32 0 -40 -4 -40 -19 0 -15 -10 -19 -58 -24 -37 -4 -62
-12 -72 -24 -11 -14 -30 -18 -77 -19 -63 0 -63 0 -63 28 0 15 -5 28 -10 28 -6
0 -9 3 -9 8 6 37 -3 92 -15 92 -8 0 -16 -7 -20 -15 -3 -10 -19 -15 -43 -15
-27 0 -34 3 -23 10 17 10 16 11 -30 29 -19 8 -52 13 -72 12 -20 -1 -39 3 -43
9 -9 15 -25 12 -25 -5 0 -11 -11 -15 -40 -15 -33 0 -40 -3 -40 -20 0 -17 -5
-19 -32 -13 -52 9 -53 9 -50 -11 3 -14 -1 -17 -13 -12 -30 11 -145 -5 -145
-20 0 -10 -14 -14 -50 -14 l-50 0 0 40 0 40 117 0 c140 0 144 17 5 22 -74 2
-96 6 -103 19 -4 9 -5 19 -2 23 3 3 -7 6 -23 6 -16 0 -39 3 -51 6 -18 5 -23 2
-23 -12 -1 -18 -2 -18 -13 -2 -18 23 -40 27 -192 38 -71 5 -139 11 -150 13
-11 3 -57 8 -103 12 l-82 7 0 -3626 0 -3626 4800 0 4800 0 0 1348 0 1348 -147
58 c-82 33 -191 77 -243 98 -52 22 -113 46 -135 55 -83 32 -141 62 -118 63 12
0 29 -7 38 -17 9 -9 29 -17 43 -19 35 -3 99 -27 114 -42 7 -7 24 -12 39 -12
15 0 32 -7 39 -15 7 -8 18 -15 26 -15 14 0 66 -20 117 -46 16 -8 35 -14 42
-14 7 0 32 -9 56 -19 24 -11 46 -18 50 -15 4 2 12 -3 19 -11 7 -8 23 -15 36
-15 22 0 24 4 22 45 -1 43 -10 56 -23 35 -3 -5 -16 -10 -28 -9 -12 0 -16 3 -9
6 21 8 13 32 -13 39 -14 3 -41 4 -60 2 -26 -3 -34 -1 -31 9 5 12 -5 17 -30 14
-6 -1 -11 13 -10 31 1 26 6 34 24 36 19 3 22 -1 22 -27 0 -17 5 -31 10 -31 6
0 10 18 10 40 0 24 -5 40 -12 40 -6 0 -9 2 -7 5 3 2 15 2 27 -2 18 -4 22 -13
22 -44 0 -24 5 -39 13 -40 6 0 31 -2 55 -4 l42 -3 -1 154 -1 154 -23 0 c-13 0
-25 4 -27 9 -2 5 -48 4 -106 -3 -94 -10 -106 -14 -127 -39 -30 -34 -35 -34
-35 1 0 15 -5 33 -12 40 -9 9 -4 12 25 13 59 2 62 3 65 23 2 11 11 26 19 35
13 12 13 16 2 20 -7 2 -20 10 -28 18 -10 10 -31 13 -85 8 -55 -4 -65 -3 -45 5
18 7 29 21 33 42 11 54 9 56 -51 64 -32 3 -63 11 -69 15 -7 5 -25 9 -41 7 -15
-1 -50 4 -77 12 -37 10 -50 10 -55 1 -5 -8 -21 -10 -49 -5 -31 5 -51 2 -81
-14 -33 -18 -51 -20 -115 -15 -50 4 -76 10 -73 17 3 7 -10 10 -39 7 -28 -2
-44 1 -44 8 0 6 16 11 36 11 27 0 41 7 61 31 17 20 32 29 45 26 11 -3 18 0 18
9 0 10 15 14 59 14 33 0 62 4 66 10 8 12 -16 50 -32 50 -7 0 -13 5 -13 10 0 6
-18 10 -40 10 -29 0 -40 4 -40 15 0 8 -4 15 -10 15 -5 0 -10 7 -10 15 0 8 5
15 10 15 6 0 10 -4 10 -10 0 -5 18 -10 40 -10 22 0 40 5 40 10 0 6 7 10 15 10
8 0 15 4 15 9 0 13 -26 32 -33 24 -4 -3 -7 -1 -7 5 0 18 -95 15 -110 -3 -7 -8
-16 -15 -21 -15 -5 0 -18 -9 -29 -20 -16 -16 -33 -20 -84 -20 -45 0 -65 -4
-69 -14 -7 -18 -154 -41 -204 -31 -34 6 -36 5 -19 -8 17 -12 9 -13 -65 -9 -46
2 -88 8 -94 13 -5 6 -5 9 3 9 15 0 3 31 -17 47 -24 17 1 37 44 36 22 -1 35 4
35 12 0 8 -9 10 -26 7 -15 -3 -25 -1 -22 4 2 5 14 30 26 56 13 27 31 50 44 54
48 15 79 84 38 84 -11 0 -20 5 -20 12 0 6 -10 22 -22 35 -20 21 -21 27 -10 56
7 19 12 42 12 54 0 11 3 23 7 26 9 10 15 126 8 165 -8 46 -25 40 -25 -10 0
-23 -3 -38 -7 -34 -4 4 -13 -8 -19 -26 -10 -29 -13 -30 -18 -13 -4 11 -16 43
-27 72 -12 29 -18 57 -15 62 4 6 8 43 11 83 5 102 -10 121 -77 93 -14 -6 -18
-2 -18 18 0 17 7 27 23 31 14 4 18 9 11 13 -19 13 -34 50 -34 85 -1 27 -2 30
-11 15 -18 -31 -34 -18 -53 41 -38 117 -49 141 -78 171 -31 31 -47 36 -83 22
-15 -6 -27 0 -51 26 -23 24 -37 31 -50 26 -17 -6 -17 -5 -5 10 12 15 11 17 -2
17 -26 0 -67 22 -67 37 0 15 26 18 35 3 9 -15 47 -12 43 3 -3 6 -14 16 -26 22
-24 11 -29 31 -9 38 10 3 10 9 0 26 -17 28 -17 29 12 23 14 -2 25 -8 25 -13 0
-5 20 -30 45 -56 51 -53 54 -51 24 15 -21 46 -58 89 -95 110 -18 10 -18 11 3
29 15 14 20 26 16 46 -3 15 -9 27 -14 27 -5 0 -9 7 -9 15 0 8 -5 15 -10 15 -7
0 -7 -6 0 -20 12 -23 13 -22 -17 -25 -13 -1 -23 2 -23 6 0 5 -8 9 -18 9 -10 0
-33 13 -52 30 -27 24 -31 32 -21 44 7 8 10 24 7 34 -7 22 14 35 39 26 20 -8
19 6 -2 21 -13 10 -17 31 -18 98 -2 71 -7 94 -29 136 -14 28 -26 60 -26 71 0
11 -4 20 -10 20 -13 0 -90 81 -90 95 0 5 5 2 11 -7 5 -10 16 -18 24 -18 11 0
11 6 -2 33 -9 17 -17 33 -19 35 -1 2 -12 -2 -24 -8 -18 -9 -21 -9 -15 0 4 7 1
16 -6 21 -10 6 -11 9 -1 9 6 0 12 5 12 10 0 6 -15 10 -32 10 -72 0 -79 7 -76
66 2 37 7 54 17 54 7 0 11 6 8 13 -3 9 7 11 39 9 l43 -4 -2 229 c-1 125 -3
216 -5 201 -2 -16 -8 -28 -14 -28 -7 0 -8 14 -4 40 4 25 2 40 -4 40 -5 0 -10
12 -9 28 0 26 1 26 9 5 11 -28 24 -30 17 -4 -4 15 16 42 77 104 44 46 92 106
106 133 14 27 33 60 43 73 26 36 22 68 -11 85 -32 17 -67 87 -64 131 3 45 -9
58 -42 45 -15 -5 -32 -8 -37 -4 -16 9 -10 43 11 64 22 22 26 60 8 78 -15 15 7
42 34 42 32 0 128 104 135 145 3 19 10 35 14 35 5 0 9 9 9 19 0 10 13 44 29
74 20 39 28 65 25 93 -4 46 4 77 17 68 5 -3 7 -9 4 -13 -2 -5 2 -16 9 -26 12
-17 14 -15 21 26 4 24 18 82 31 129 46 167 51 483 9 588 -18 43 -29 49 -88 50
-38 0 -46 11 -23 28 19 13 19 14 -6 14 -23 0 -26 4 -25 38 0 20 4 42 8 48 5 5
7 31 5 57 -2 44 -1 46 21 43 34 -7 36 7 8 57 -23 40 -24 45 -8 43 20 -1 25 27
11 57 -7 13 -5 17 8 17 12 0 14 5 8 18 -7 17 -8 23 -4 100 2 35 6 43 26 48 18
5 24 13 24 34 0 23 4 27 20 23 11 -3 20 0 20 6 0 6 -6 10 -12 8 -8 -1 -12 8
-10 26 2 15 -1 27 -7 27 -6 0 -11 7 -11 15 0 8 5 15 10 15 6 0 10 -5 10 -11 0
-5 5 -7 11 -4 7 5 4 14 -8 29 -31 36 -53 83 -47 100 4 11 1 16 -10 16 -9 0
-16 7 -16 15 0 8 -4 15 -10 15 -15 0 -12 27 5 44 8 8 15 19 15 24 0 6 14 13
30 17 39 9 39 26 0 18 -25 -4 -29 -3 -24 10 3 8 13 18 22 22 14 5 14 8 2 15
-11 7 -9 17 11 57 13 26 27 50 32 51 4 2 7 12 7 22 0 10 5 22 10 25 6 4 16 21
24 38 9 22 21 33 36 34 20 2 49 28 50 45 0 4 -13 5 -30 2 -38 -8 -38 1 1 38
22 22 28 33 20 41 -7 7 -16 5 -31 -8 -11 -10 -23 -15 -27 -11 -4 4 -2 11 6 15
10 6 9 10 -4 15 -17 6 -17 28 0 70 6 14 5 17 -3 12 -7 -4 -12 -1 -12 9 0 9 -4
14 -9 11 -11 -7 -11 86 0 100 6 7 5 22 0 38 -6 14 -11 42 -13 61 -1 20 -6 38
-10 41 -4 3 -5 11 -1 19 3 8 0 15 -6 15 -7 0 -9 10 -6 25 3 14 7 36 10 50 3
14 10 23 15 20 6 -3 7 1 4 9 -7 18 -24 22 -24 5 0 -5 -4 -7 -10 -4 -20 12 -9
34 17 37 19 2 29 10 31 23 3 16 1 18 -9 8 -7 -7 -19 -13 -27 -13 -16 0 -42 24
-42 38 0 6 -4 12 -9 14 -5 2 -12 23 -16 48 -4 25 -11 49 -16 55 -11 11 -12 28
0 21 4 -3 6 7 3 22 -5 24 -6 24 -13 7 -7 -18 -8 -18 -8 -2 -1 10 -6 15 -11 12
-13 -8 -13 8 0 21 17 17 20 125 4 122 -7 -2 -12 2 -11 7 1 6 5 9 10 7 4 -1 7
13 7 30 0 18 3 44 6 58 5 23 4 24 -9 7 -14 -17 -15 -17 -22 0 -9 19 -14 57
-17 106 0 20 -3 25 -9 15 -7 -10 -9 -9 -9 4 0 23 -21 68 -32 68 -4 0 -8 -10
-8 -22 -1 -22 -1 -23 -15 -4 -8 11 -15 31 -15 45 1 25 1 25 15 7 8 -11 17 -17
20 -14 7 7 -45 98 -56 98 -13 0 -11 -14 3 -28 7 -7 9 -12 4 -12 -4 0 -26 19
-49 43 -23 23 -55 50 -70 60 -24 16 -41 47 -17 32 6 -3 10 -1 10 6 0 7 -10 9
-26 6 -39 -7 -91 21 -153 80 -29 29 -57 50 -62 47 -5 -2 -11 6 -15 20 -3 13
-12 27 -20 30 -7 3 -13 2 -11 -2 4 -14 -15 -15 -48 -2 -24 10 -46 33 -81 87
-41 64 -51 73 -76 73 -28 0 -84 31 -100 54 -4 6 -15 11 -25 11 -12 0 -19 9
-21 26 -2 15 -13 32 -27 39 -13 7 -22 17 -19 22 3 4 0 8 -5 8 -6 0 -11 10 -11
23 -1 25 -26 64 -37 54 -3 -4 -1 -17 5 -30 6 -12 13 -35 17 -51 5 -26 4 -28
-17 -22 -13 3 -26 6 -30 6 -5 0 -8 6 -8 13 0 13 -48 16 -67 4 -8 -5 -15 1 -19
18 -5 21 -8 23 -18 11 -8 -11 -17 -12 -36 -4 -14 6 -34 10 -46 9 -13 -1 -25 8
-35 26 -8 15 -22 34 -31 41 -10 7 -18 26 -18 42 0 35 29 55 69 47 15 -3 33 -2
40 2 24 15 -58 21 -86 6 -32 -17 -32 -17 -35 21 -1 16 -9 34 -18 41 -8 7 -11
13 -6 13 17 0 -57 50 -75 50 -9 0 -19 6 -22 14 -3 8 -16 16 -29 18 l-23 5 25
11 c21 10 16 11 -32 6 l-58 -6 7 33 c6 31 5 33 -10 20 -17 -14 -21 -10 -18 22
3 26 -26 52 -43 38 -9 -8 -16 -8 -20 -2 -3 5 0 12 6 15 7 3 1 3 -14 0 -30 -7
-40 11 -10 19 9 3 3 5 -15 6 -17 0 -35 6 -38 11 -4 6 -11 8 -16 4 -5 -3 -6
-10 -3 -16 4 -6 1 -9 -7 -6 -8 3 -13 14 -12 26 2 16 -4 21 -33 24 -19 2 -37 0
-40 -4 -3 -4 -14 -8 -26 -8 -14 0 -18 5 -14 15 5 13 2 14 -15 4 -15 -8 -28 -8
-43 -1 -25 12 -69 23 -111 27 -16 1 -35 3 -40 4 -6 0 -22 12 -36 25 -14 13
-36 27 -50 31 -13 3 -42 15 -65 25 -22 10 -76 26 -119 35 -43 9 -81 18 -85 20
-4 2 -16 -2 -26 -9 -16 -12 -24 -12 -53 0 -18 8 -36 13 -40 13 -3 -1 -28 -5
-56 -9z m665 -1726 c0 -10 13 -14 50 -14 28 0 50 -4 50 -9 0 -15 54 -9 67 8
11 14 12 14 13 -3 0 -16 6 -18 50 -14 28 3 53 1 56 -4 8 -13 101 -58 121 -58
10 0 31 -11 47 -25 34 -30 43 -31 49 -7 3 15 5 15 12 -3 11 -27 31 -37 74 -40
19 -1 37 -7 39 -14 2 -6 13 -11 25 -11 18 0 73 -45 124 -102 21 -23 43 -39 43
-31 0 4 7 0 14 -10 8 -10 18 -17 22 -16 36 6 64 -28 64 -77 0 -13 4 -25 9 -28
5 -3 8 -34 6 -68 -1 -35 0 -46 2 -25 2 20 8 37 14 37 13 0 11 -291 -2 -348 -6
-26 -20 -54 -30 -64 -12 -10 -19 -29 -19 -51 0 -31 -3 -35 -40 -46 -42 -12
-47 -20 -28 -39 9 -9 7 -12 -11 -12 -29 0 -62 -35 -54 -58 4 -14 3 -15 -6 -2
-9 12 -11 12 -16 -3 -6 -13 -11 -14 -26 -6 -22 11 -39 4 -39 -16 0 -26 -95
-14 -110 15 -9 17 -7 22 17 31 16 7 23 13 15 16 -21 8 -2 23 29 23 26 0 29 3
29 30 0 33 -7 35 -117 30 -25 -1 -43 3 -43 9 0 6 7 11 15 11 8 0 26 11 40 25
25 26 33 55 15 55 -6 0 -17 18 -26 41 -15 37 -19 40 -48 34 -22 -4 -27 -3 -17
4 11 7 6 11 -22 16 -20 4 -37 11 -37 16 0 5 -18 9 -40 9 -22 0 -40 5 -40 10 0
6 -7 10 -15 10 -8 0 -15 5 -15 11 0 6 9 9 19 6 14 -3 18 -1 14 9 -3 8 -19 14
-38 14 -19 0 -37 4 -40 10 -4 6 -36 7 -81 3 -54 -4 -78 -3 -83 6 -10 15 -41 3
-41 -15 0 -8 -10 -14 -22 -14 -19 0 -20 -2 -8 -10 13 -8 12 -10 -3 -10 -11 0
-33 -8 -49 -17 -23 -14 -32 -15 -35 -5 -5 14 -33 16 -33 2 0 -5 7 -10 15 -10
8 0 15 -7 15 -16 0 -15 -2 -15 -25 0 -31 20 -55 21 -55 1 0 -8 4 -15 10 -15 5
0 7 -6 4 -14 -4 -10 -14 -12 -42 -6 -35 8 -125 14 -166 11 -19 -1 -19 -9 0
-70 7 -23 5 -24 -29 -18 l-36 6 -3 -42 c-2 -23 1 -50 7 -59 7 -13 6 -24 -3
-38 -16 -25 -16 -100 0 -100 6 0 20 7 30 16 15 14 20 15 34 3 10 -8 27 -14 38
-15 68 -2 76 -5 76 -21 1 -10 10 -29 21 -42 19 -23 20 -23 39 -6 19 17 21 17
40 0 16 -15 30 -17 78 -12 l58 6 2 -32 c2 -30 -1 -33 -43 -46 -51 -15 -54 -20
-23 -40 19 -12 24 -10 48 18 24 26 35 31 74 31 25 0 46 -4 46 -10 0 -5 11 -10
25 -10 14 0 25 -4 25 -10 0 -14 -67 -13 -72 1 -2 7 -8 6 -17 -4 -18 -22 14
-37 81 -38 33 -1 60 -7 71 -17 16 -14 19 -14 27 -2 7 11 12 12 20 4 8 -8 7
-16 -4 -27 -23 -23 -20 -37 8 -37 13 0 31 -3 40 -6 12 -4 16 0 16 15 0 27 8
26 37 -1 31 -29 29 -38 -7 -38 -16 0 -30 -5 -30 -11 0 -5 8 -9 18 -7 25 4 52
-20 45 -39 -8 -20 16 -34 44 -26 14 3 23 1 23 -7 0 -7 10 -10 28 -6 34 8 85
-7 128 -36 29 -20 34 -29 34 -65 0 -36 3 -43 20 -43 34 0 60 -35 60 -82 0 -39
4 -45 36 -60 19 -10 41 -18 48 -18 15 0 26 -21 26 -52 0 -11 11 -31 25 -44 26
-24 33 -60 13 -66 -7 -3 -6 -7 5 -11 9 -3 17 -2 17 3 0 16 30 11 36 -5 4 -8
15 -15 25 -15 11 0 22 7 25 15 4 9 19 15 35 15 l29 0 -17 -36 c-22 -45 -9 -68
41 -72 40 -4 47 -23 22 -57 -17 -23 -3 -60 20 -51 8 3 14 1 14 -5 0 -6 5 -7
10 -4 6 4 10 14 9 23 -3 30 1 33 21 22 17 -9 19 -19 16 -73 -3 -46 1 -73 15
-104 10 -23 19 -50 20 -60 0 -16 1 -16 9 2 6 14 9 2 9 -41 1 -43 6 -66 16 -74
9 -7 14 -19 11 -27 -3 -8 1 -33 9 -56 8 -23 15 -52 15 -64 0 -13 4 -23 9 -23
10 0 26 -91 22 -132 -1 -15 2 -35 7 -45 6 -10 13 -47 17 -83 4 -36 11 -69 16
-74 5 -6 9 -28 9 -50 0 -24 -4 -36 -8 -29 -4 7 -7 -13 -7 -45 2 -64 -3 -81
-16 -61 -8 11 -11 11 -20 -4 -6 -9 -14 -15 -20 -12 -5 4 -9 -2 -9 -11 0 -10 3
-14 7 -11 3 4 14 0 22 -8 21 -18 16 -95 -5 -95 -13 0 -19 -14 -14 -35 1 -5 3
-27 3 -48 2 -26 -2 -36 -10 -32 -8 3 -13 -5 -13 -21 0 -14 4 -23 9 -20 15 10
-1 -37 -23 -66 -18 -25 -45 -41 -32 -19 3 5 -1 14 -9 21 -12 10 -15 10 -15 -2
0 -8 -16 -23 -35 -34 -31 -16 -37 -17 -45 -4 -8 12 -10 12 -16 -3 -4 -10 -2
-23 5 -30 27 -27 -9 -35 -61 -12 -16 6 -17 1 -15 -44 2 -30 -2 -59 -8 -68 -11
-15 -13 -14 -24 5 -13 24 -41 30 -41 10 1 -7 14 -28 30 -47 16 -19 26 -39 23
-44 -3 -5 -18 4 -33 21 -19 22 -30 28 -41 21 -12 -8 -11 -11 4 -23 32 -24 15
-96 -23 -96 -13 0 -20 -7 -20 -20 0 -11 7 -20 15 -20 8 0 15 -4 15 -10 0 -5
-7 -7 -15 -4 -10 4 -15 0 -15 -14 0 -11 -7 -25 -15 -32 -12 -10 -16 -8 -24 11
l-9 24 -6 -25 c-4 -14 -8 -38 -10 -55 -3 -31 -36 -50 -36 -21 0 20 -48 68 -61
61 -5 -4 -9 -15 -9 -25 0 -11 -6 -18 -12 -16 -7 1 -10 1 -5 -1 15 -9 6 -41
-13 -46 -11 -3 -20 -1 -20 4 0 5 -7 9 -15 9 -9 0 -19 8 -23 18 -4 9 -14 17
-22 17 -8 0 -16 10 -18 23 -4 23 -16 29 -27 12 -3 -5 -17 -10 -29 -10 -28 0
-55 -26 -34 -33 7 -2 3 -2 -9 -1 -12 2 -23 0 -25 -4 -4 -13 -108 -23 -108 -12
0 6 7 10 15 10 8 0 15 5 15 11 0 7 -9 9 -22 5 -13 -3 -29 -6 -36 -6 -7 0 -10
-4 -7 -10 9 -15 -3 -12 -24 7 -11 9 -18 20 -15 25 3 4 -2 8 -10 8 -9 0 -16 -7
-16 -15 0 -8 5 -15 10 -15 25 0 7 -28 -21 -32 -25 -4 -33 -1 -37 14 -4 16 -12
19 -38 16 -18 -2 -30 0 -28 4 3 4 23 8 45 8 32 0 39 3 39 20 0 17 -7 20 -40
20 -37 0 -40 2 -40 28 0 21 -2 24 -10 12 -8 -13 -11 -12 -24 5 -14 18 -15 18
-16 3 0 -28 -18 -21 -23 10 -4 26 -4 26 -6 -4 -1 -28 -4 -30 -30 -26 -22 3
-34 13 -46 38 -8 18 -23 37 -31 42 -9 5 -15 13 -13 18 1 5 -6 11 -16 13 -13 2
-16 -1 -12 -13 3 -8 2 -18 -2 -21 -5 -3 -11 17 -13 44 -1 27 0 47 4 45 10 -6
-2 58 -13 70 -10 11 -69 -15 -62 -27 9 -16 -23 6 -59 38 -18 17 -41 34 -51 38
-9 3 -17 13 -17 22 0 8 -9 15 -20 15 -11 0 -20 7 -20 15 0 8 -18 33 -39 55
-30 32 -39 49 -38 75 1 40 -19 68 -44 60 -9 -3 -20 -1 -23 4 -7 11 -106 8
-125 -3 -6 -4 -11 -16 -11 -27 0 -13 -7 -19 -22 -20 -21 -1 -21 -2 -3 -6 11
-2 30 -6 42 -8 14 -3 20 -10 17 -19 -3 -8 7 -24 25 -37 17 -13 31 -28 31 -35
0 -7 7 -17 15 -21 8 -5 17 -29 20 -54 l6 -46 -46 -17 c-25 -10 -45 -22 -45
-28 0 -7 -14 -8 -37 -5 -21 3 -57 2 -80 -2 -28 -5 -51 -4 -70 4 -56 25 -138
34 -177 21 -19 -7 -39 -15 -42 -19 -4 -4 -15 -7 -24 -7 -8 0 -33 -9 -55 -20
-22 -11 -47 -20 -56 -20 -10 0 -19 -6 -22 -12 -3 -10 -11 -10 -37 -1 -26 10
-36 10 -41 1 -6 -9 -18 -8 -49 2 -29 9 -47 11 -58 4 -20 -13 -93 6 -170 44
-31 16 -35 16 -63 -1 -17 -9 -36 -17 -42 -17 -7 0 -23 -14 -36 -30 -13 -17
-32 -30 -42 -30 -11 0 -19 -6 -19 -14 0 -8 -8 -13 -17 -12 -23 4 -29 62 -13
125 10 41 80 151 102 159 12 5 10 60 -3 67 -14 9 -51 -25 -45 -41 3 -8 -1 -11
-10 -7 -8 3 -14 -1 -14 -11 0 -9 -4 -16 -10 -16 -5 0 -10 -10 -10 -22 0 -13
-5 -30 -10 -38 -8 -12 -12 -13 -19 -2 -6 10 -10 5 -14 -17 -4 -17 -18 -41 -32
-53 -14 -12 -25 -29 -25 -39 0 -10 -9 -21 -20 -24 -13 -4 -20 -15 -20 -31 0
-13 -4 -24 -10 -24 -5 0 -10 -9 -10 -20 0 -11 5 -20 10 -20 6 0 10 -15 8 -33
-1 -18 2 -39 7 -47 4 -8 5 -12 0 -8 -9 9 -45 -9 -45 -23 0 -17 44 -28 60 -14
26 22 60 28 60 11 0 -15 9 -18 78 -21 13 0 26 -6 30 -12 4 -6 18 -13 31 -14
32 -5 58 -81 34 -101 -10 -8 -13 -27 -11 -62 2 -38 -1 -56 -15 -72 -10 -11
-26 -36 -36 -54 -10 -19 -24 -36 -31 -38 -8 -3 -10 0 -5 8 6 9 3 9 -14 1 -12
-7 -25 -10 -30 -7 -5 3 -19 -4 -32 -15 -14 -12 -25 -16 -27 -10 -5 16 -21 13
-49 -9 -26 -20 -45 -26 -40 -12 1 4 -1 8 -5 10 -21 6 -28 -1 -28 -27 0 -48
-25 -49 -49 -3 -11 21 -14 22 -29 9 -9 -9 -30 -18 -47 -22 -18 -4 -25 -3 -18
2 9 6 10 18 4 38 -5 17 -10 26 -10 21 -1 -5 -7 -3 -15 4 -20 16 -9 40 19 40
25 0 38 21 29 45 -4 9 0 15 9 15 8 0 17 10 20 23 2 12 8 30 12 40 5 12 3 17
-8 17 -16 0 -13 34 6 58 5 7 6 16 2 20 -4 4 -10 1 -12 -5 -3 -7 -9 -13 -14
-13 -6 0 -7 5 -4 10 4 6 -9 10 -31 10 -35 0 -36 -1 -19 -14 19 -13 18 -15 -5
-40 -20 -20 -35 -26 -72 -26 -26 0 -58 4 -72 10 -17 6 -26 6 -26 0 0 -6 5 -10
11 -10 6 0 9 -6 7 -12 -3 -8 -20 -11 -49 -9 -59 4 -87 20 -36 21 24 0 36 4 32
10 -4 6 -1 17 5 25 16 19 4 35 -26 35 -17 0 -24 -5 -24 -20 0 -17 -7 -20 -40
-20 -22 0 -41 -4 -41 -10 -1 -5 -2 -16 -3 -22 0 -7 -18 -17 -40 -23 -33 -8
-40 -6 -52 10 -18 24 -18 28 4 52 9 11 28 20 41 19 37 -2 36 20 -3 38 -42 20
-46 20 -46 1 0 -8 -7 -15 -16 -15 -9 0 -22 -7 -29 -16 -11 -16 -12 -16 -18 0
-4 9 -2 16 3 16 6 0 10 10 10 22 0 20 -2 20 -31 -8 -16 -16 -35 -34 -42 -40
-13 -13 -57 26 -57 51 0 22 -50 40 -73 25 -27 -16 -28 -10 -6 35 12 24 15 41
9 43 -5 2 -10 10 -10 17 0 7 -9 15 -20 18 -11 3 -18 2 -15 -2 2 -5 -2 -17 -10
-27 -12 -17 -13 -15 -5 21 4 22 8 63 8 91 0 28 3 62 7 75 7 21 6 22 -9 7 -9
-9 -16 -20 -16 -24 0 -22 -36 -84 -46 -80 -7 3 -15 0 -17 -7 -3 -7 -3 6 -1 28
l5 40 -14 -30 -14 -30 -7 50 c-13 100 -18 404 -7 555 5 85 22 238 35 340 14
102 26 204 26 227 0 24 5 43 13 46 9 3 9 7 1 18 -15 18 -6 79 11 79 18 0 28
-32 14 -41 -10 -6 -10 -17 -2 -46 6 -21 11 -45 12 -53 4 -56 11 -85 23 -95 8
-5 24 -25 37 -42 19 -29 28 -33 67 -33 32 0 44 -4 44 -15 0 -9 9 -15 22 -15
16 0 19 -3 11 -11 -16 -16 -5 -39 23 -50 13 -4 24 -15 24 -24 0 -8 6 -15 13
-15 8 0 22 -9 32 -20 10 -11 25 -20 33 -20 9 0 13 -3 9 -6 -10 -10 15 -30 48
-39 22 -6 25 -9 12 -12 -32 -8 -6 -23 39 -23 28 0 43 -4 39 -10 -4 -6 14 -11
47 -11 29 -1 43 -4 31 -6 -13 -2 -23 -8 -23 -13 0 -9 33 -8 255 3 88 5 85 4
85 22 0 11 10 13 50 8 40 -5 50 -3 50 9 0 10 7 14 23 11 29 -6 86 19 118 51
17 17 39 27 63 28 29 3 36 7 36 24 0 26 20 35 59 28 16 -3 31 -1 35 4 3 6 15
8 25 5 14 -4 23 4 36 31 10 20 21 36 25 36 4 0 10 17 13 38 10 82 46 191 74
222 22 25 29 43 30 83 2 29 7 53 12 55 6 2 7 10 4 19 -3 9 4 34 17 57 18 33
33 46 76 64 71 29 127 29 154 0 11 -12 20 -27 20 -33 0 -6 14 -26 32 -45 17
-19 32 -46 33 -60 4 -42 46 -154 69 -180 12 -14 33 -46 46 -72 13 -27 27 -48
32 -48 4 0 8 -7 8 -15 0 -9 12 -18 30 -22 17 -3 30 -11 30 -18 0 -7 10 -20 23
-28 l22 -16 -25 0 c-17 -1 -21 -4 -13 -12 6 -6 53 -13 105 -14 51 -2 109 -8
128 -14 19 -6 51 -11 71 -11 19 0 44 -7 55 -15 29 -22 42 -18 36 10 -2 15 0
25 7 25 6 0 11 -4 11 -8 0 -4 16 -6 35 -4 25 3 42 -1 55 -13 15 -14 23 -15 33
-7 10 9 18 8 33 -3 24 -18 84 -20 85 -2 0 6 5 2 11 -10 11 -23 38 -32 38 -13
0 6 7 10 15 10 8 0 15 5 15 10 0 6 15 10 33 10 17 0 48 4 67 10 19 5 58 11 88
12 42 2 52 6 49 18 -3 11 6 16 41 18 24 1 50 9 59 17 8 8 30 15 48 15 35 0 61
19 28 21 -10 0 1 7 25 16 23 8 42 18 42 23 0 4 14 10 31 14 25 5 29 9 20 19
-16 21 30 40 65 27 32 -13 44 -13 44 0 0 6 -7 10 -15 10 -8 0 -15 4 -15 9 0 5
7 16 15 25 8 8 15 21 15 28 0 16 77 51 97 44 13 -5 73 48 73 66 0 5 11 13 24
18 14 5 29 23 37 44 13 35 38 52 88 58 26 3 42 28 19 28 -10 0 -13 12 -11 43
2 23 0 36 -3 29 -3 -6 -10 -9 -16 -6 -5 4 2 14 16 23 26 18 26 18 6 36 -25 22
-26 45 -2 39 9 -2 24 0 32 6 13 9 12 12 -5 26 -17 13 -18 16 -5 24 8 5 23 7
33 4 9 -3 17 -1 17 5 0 6 -12 11 -27 11 -31 1 -63 21 -63 39 0 6 -3 10 -7 10
-5 -1 -21 0 -38 1 -26 2 -24 4 15 12 l45 9 -46 50 c-25 27 -51 49 -57 49 -7 0
-12 5 -12 10 0 6 7 10 15 10 8 0 15 5 15 11 0 5 -4 8 -10 4 -5 -3 -18 2 -29
12 -41 37 -50 43 -56 33 -6 -10 -52 30 -47 43 1 4 -3 7 -9 7 -7 0 -27 16 -46
35 -19 19 -41 35 -49 35 -8 0 -17 7 -20 15 -4 8 -14 15 -24 15 -11 0 -22 5
-25 11 -18 27 -90 69 -122 69 -18 0 -33 -4 -33 -10 0 -5 -7 -7 -16 -3 -13 5
-13 8 -2 15 9 6 6 7 -9 3 -13 -3 -28 -3 -35 1 -6 4 -55 7 -107 6 -116 -1 -109
0 -91 -13 11 -7 4 -8 -25 -3 -22 4 -41 11 -43 15 -2 5 -15 9 -28 9 -13 0 -24
5 -24 10 0 6 -14 10 -31 10 -18 0 -37 6 -43 14 -13 17 -25 19 -91 16 -27 -2
-40 -5 -27 -7 12 -2 22 -9 22 -14 0 -13 -34 -11 -65 3 -27 12 -49 3 -26 -12
10 -5 5 -8 -15 -7 -16 1 -35 8 -42 14 -18 17 -42 16 -85 -2 -20 -8 -52 -15
-72 -15 -37 0 -51 -25 -17 -33 9 -2 -14 -2 -53 1 -51 3 -90 -2 -145 -17 -83
-23 -140 -27 -140 -9 0 6 -9 3 -20 -7 -11 -10 -20 -26 -20 -35 0 -9 -10 -22
-22 -28 -13 -6 -17 -11 -10 -11 6 -1 12 -6 12 -12 0 -32 -70 -58 -94 -34 -8 8
-21 15 -29 15 -8 0 -20 7 -27 15 -18 22 -30 18 -30 -8 0 -13 -7 -32 -15 -43
-13 -17 -16 -17 -27 -4 -16 20 -55 23 -62 5 -3 -8 -18 -21 -34 -29 -26 -14
-31 -14 -42 -1 -16 20 -22 19 -50 -7 -26 -24 -130 -40 -130 -19 0 6 -11 16
-25 21 -14 5 -28 18 -32 27 -9 24 -23 33 -55 33 -15 0 -29 4 -32 9 -4 5 -25
12 -49 16 -23 4 -62 13 -87 22 -25 8 -58 15 -73 15 -15 1 -30 5 -33 10 -3 4
-15 3 -26 -3 -12 -7 -38 -9 -62 -5 -23 4 -59 6 -81 5 -22 -1 -51 -1 -65 -1
-14 1 -34 -3 -45 -8 -71 -31 -159 -40 -168 -17 -4 7 -6 6 -6 -4 -1 -16 -28
-29 -64 -29 -25 0 -59 -34 -52 -52 5 -12 -4 -17 -36 -22 -48 -8 -57 -3 -39 19
7 8 10 15 7 15 -15 0 -75 -31 -87 -44 -7 -9 -19 -16 -26 -16 -8 0 -14 -4 -14
-10 0 -5 -11 -10 -24 -10 -14 0 -33 -12 -47 -30 -13 -16 -31 -30 -39 -30 -8 0
-33 -18 -54 -40 -58 -59 -86 -50 -51 16 8 16 15 43 15 59 0 40 31 125 46 125
6 0 11 10 10 22 -1 15 6 24 19 27 45 8 70 22 56 30 -9 6 -3 12 23 21 28 9 36
17 36 36 0 16 -6 24 -17 24 -38 1 20 30 59 30 33 0 38 3 38 24 0 23 4 24 80
31 73 7 81 9 86 31 3 13 4 30 1 38 -4 9 2 17 14 21 23 8 25 21 3 33 -24 14 -8
32 29 33 l32 1 -29 7 c-36 7 -36 25 -1 29 15 2 25 10 25 19 0 10 -6 14 -20 10
-11 -3 -23 -1 -26 4 -3 5 4 9 15 9 11 0 29 11 40 26 23 29 144 120 172 129 10
4 21 16 23 28 3 12 7 34 10 49 5 19 1 30 -11 37 -17 10 -17 12 0 25 25 19 21
26 -13 26 -20 0 -30 5 -30 15 0 17 -13 19 -57 6 -26 -8 -36 -6 -54 10 -12 10
-26 19 -32 19 -5 0 -4 7 3 15 10 12 10 15 -4 15 -9 0 -16 4 -16 8 0 5 -18 14
-39 21 -21 6 -41 17 -44 25 -3 7 -18 17 -34 21 -15 3 -31 12 -35 18 -6 9 -8 9
-8 0 0 -22 -18 -14 -54 23 -29 30 -41 36 -66 32 -17 -3 -33 -1 -36 4 -3 4 6 8
19 8 20 0 24 4 20 19 -3 14 3 21 26 29 32 11 42 32 16 32 -33 0 -13 28 28 38
36 10 45 17 56 47 9 26 22 40 42 47 16 5 29 14 29 18 0 10 47 19 135 26 36 3
78 9 91 15 33 12 43 11 24 -2 -20 -14 70 -4 117 13 38 14 43 28 11 28 -17 0
-19 3 -10 12 8 8 15 8 26 -1 19 -16 56 -5 74 20 9 13 26 19 53 19 33 0 39 3
39 21 0 19 4 21 40 16 35 -4 40 -3 36 11 -3 12 7 23 37 38 30 15 41 26 40 40
-1 10 0 13 3 7 8 -18 39 -16 55 3 9 11 26 15 61 12 26 -1 49 0 51 4 1 5 31 10
66 12 34 2 66 7 70 12 3 5 21 10 39 11 56 4 71 7 66 14 -2 4 6 11 18 15 13 4
39 20 58 35 22 19 46 29 67 29 26 0 36 6 48 30 18 35 35 39 42 10 7 -28 38
-21 37 8 0 12 5 22 13 22 7 0 12 5 10 11 -1 6 4 14 11 16 7 3 12 -5 12 -20 0
-24 2 -25 33 -16 17 5 37 15 42 22 6 8 16 12 23 9 15 -5 44 17 37 28 -10 16 8
40 30 40 13 0 26 4 29 9 3 4 29 11 58 15 29 4 58 12 65 17 7 6 24 12 39 14 20
2 28 -3 32 -18 5 -20 5 -20 13 1 13 34 64 30 99 -8 35 -38 59 -41 35 -4 -9 14
-13 29 -9 32 4 4 9 1 11 -5 7 -20 25 -15 19 5 -6 17 31 42 62 42 7 0 20 7 28
15 12 11 20 12 35 5 11 -6 24 -8 29 -5 6 3 10 1 10 -4 0 -7 23 -11 54 -11 46
0 54 3 59 21 6 23 27 17 27 -7z m-286 -3959 c20 -14 43 -25 51 -25 8 0 15 -5
15 -12 0 -7 9 -21 20 -33 46 -48 60 -66 60 -76 0 -5 4 -8 9 -5 5 3 21 -6 35
-19 15 -14 34 -25 42 -25 7 0 14 -4 14 -10 0 -5 -4 -10 -10 -10 -5 0 -10 -4
-10 -10 0 -5 6 -10 13 -10 19 0 67 -56 67 -79 0 -10 7 -21 15 -25 8 -3 15 -10
15 -16 0 -15 -30 -12 -31 3 0 6 -5 2 -11 -11 -6 -13 -17 -21 -24 -18 -8 3 -16
1 -19 -4 -3 -4 1 -11 7 -13 12 -5 -26 -11 -45 -8 -4 1 -5 -13 -2 -31 9 -51 -4
-63 -51 -47 -21 8 -46 21 -56 29 -9 8 -24 21 -33 28 -8 7 -13 17 -10 23 10 15
-15 10 -31 -6 -15 -14 -44 -11 -44 6 0 4 -8 6 -17 2 -10 -3 -15 -2 -10 2 4 5
-5 16 -19 26 -21 14 -31 15 -45 6 -15 -9 -23 -7 -42 11 -14 13 -31 20 -39 17
-28 -11 -55 38 -53 95 1 27 5 53 8 57 4 3 7 16 7 28 0 13 7 28 15 35 8 7 15
19 15 26 0 8 5 14 10 14 6 0 10 6 10 14 0 8 11 17 25 20 15 4 27 16 31 31 5
21 38 42 70 44 6 1 28 -10 48 -24z m-2734 -459 c0 -8 -6 -17 -12 -20 -10 -5
-10 -7 0 -12 6 -3 12 -11 12 -19 0 -7 7 -18 15 -25 9 -8 15 -30 15 -56 0 -32
-4 -44 -15 -44 -11 0 -15 -11 -15 -40 l0 -40 -40 0 -40 0 0 40 c0 22 -4 40
-10 40 -5 0 -10 -18 -10 -40 0 -22 5 -40 10 -40 6 0 10 -11 10 -25 0 -22 -4
-25 -40 -25 -31 0 -40 -4 -41 -17 0 -12 -6 -6 -16 15 -9 17 -19 32 -23 32 -4
0 -14 -15 -23 -32 l-16 -33 0 43 c-1 41 -2 42 -36 42 -34 0 -35 1 -36 43 -2
29 -3 34 -6 15 -2 -16 -9 -28 -14 -28 -16 0 -24 36 -21 85 4 42 6 45 33 45 27
0 29 3 29 40 l0 40 65 0 65 0 2 -42 1 -43 4 43 c4 41 5 42 39 42 24 0 34 5 34
15 0 11 11 15 40 15 28 0 40 -4 40 -14z m-2460 -1165 c1 -23 24 -51 44 -51 10
0 16 -8 16 -22 0 -12 11 -33 24 -47 24 -26 45 -91 29 -91 -5 0 -15 -16 -22
-35 -7 -19 -17 -35 -22 -35 -5 0 -9 -7 -9 -15 0 -8 -4 -15 -10 -15 -5 0 -10 5
-10 10 0 6 -12 10 -26 10 -14 0 -23 -4 -19 -10 3 -5 1 -10 -4 -10 -6 0 -11 5
-11 10 0 6 -8 10 -17 10 -15 0 -18 9 -18 54 0 41 -6 62 -22 85 -41 54 -21 175
35 218 13 11 18 8 29 -18 7 -17 13 -39 13 -48z m5184 32 c3 -4 14 -8 24 -9 9
-1 25 -5 35 -9 10 -4 17 -3 17 4 0 18 39 12 60 -9 11 -11 20 -24 20 -29 0 -5
18 -11 39 -15 50 -8 59 -31 25 -63 -19 -18 -24 -30 -20 -48 5 -20 2 -26 -18
-31 -13 -3 -23 -12 -22 -22 0 -9 -8 -18 -19 -20 -11 -2 -24 -10 -28 -18 -12
-21 -27 -17 -28 9 0 21 -1 21 -9 2 -5 -11 -9 -15 -10 -10 -1 6 -5 -1 -10 -15
-8 -26 -9 -24 -25 25 -7 25 -29 17 -53 -20 -20 -31 -24 -34 -42 -23 -11 7 -20
19 -20 26 0 7 -5 10 -10 7 -6 -4 -8 -11 -5 -16 8 -12 -8 -12 -20 0 -6 6 -21
11 -35 13 -14 2 -35 9 -47 16 -30 17 -33 15 -33 -13 0 -16 -6 -25 -15 -25 -8
0 -15 7 -15 15 0 9 -9 15 -25 15 -19 0 -25 -5 -25 -21 0 -11 -4 -17 -10 -14
-6 4 -8 16 -5 28 6 21 5 21 -15 -2 l-21 -25 3 30 c3 25 0 29 -19 26 -14 -2
-23 3 -26 15 -3 10 -6 -2 -7 -27 l-2 -45 -15 35 c-8 19 -18 37 -22 40 -3 3
-12 17 -20 33 -11 20 -17 24 -23 15 -19 -31 -5 11 16 49 16 28 20 43 13 46 -7
2 -9 8 -5 12 4 4 14 2 22 -4 8 -7 20 -10 27 -6 6 4 14 3 18 -3 4 -7 19 -7 41
-2 19 4 31 8 27 9 -5 1 -6 5 -2 10 3 6 18 6 36 1 26 -8 32 -6 36 9 3 12 14 18
36 18 18 0 58 2 90 4 42 3 57 1 57 -9 0 -7 5 -10 10 -7 6 3 10 15 10 25 0 24
45 41 64 23z m2134 -86 c26 -24 28 -45 6 -54 -8 -3 -13 -11 -10 -18 7 -19 -5
-27 -20 -14 -16 13 -56 8 -61 -8 -3 -6 10 -19 26 -28 32 -16 42 -45 16 -45 -8
0 -15 -7 -15 -16 0 -11 -9 -4 -23 17 -15 22 -31 34 -45 33 -16 0 -21 4 -17 15
11 35 13 91 5 96 -6 4 -10 12 -10 20 0 11 11 10 57 -6 67 -23 63 -23 63 -4 0
8 -4 15 -10 15 -5 0 -14 9 -20 21 -11 19 -10 20 12 9 13 -7 33 -22 46 -33z
m-5014 7 c10 -4 16 -18 16 -40 0 -19 5 -34 10 -34 6 0 10 -9 10 -19 0 -11 -4
-23 -10 -26 -5 -3 -10 -15 -10 -26 0 -10 -4 -19 -10 -19 -5 0 -10 -11 -10 -25
0 -17 -5 -25 -17 -25 -36 0 -61 12 -66 31 -3 11 -14 19 -27 19 -16 0 -20 4
-16 16 3 9 6 29 6 44 0 17 10 40 25 56 14 15 23 34 21 41 -6 14 48 19 78 7z
m1996 -31 c0 -15 2 -16 10 -3 8 13 11 12 24 -5 9 -11 16 -15 17 -10 1 6 4 -3
8 -20 4 -21 13 -31 29 -33 17 -3 22 -10 22 -30 -1 -24 -2 -25 -11 -9 -9 16
-12 16 -22 4 -7 -8 -36 -22 -65 -32 -47 -15 -51 -19 -36 -29 25 -19 2 -27 -28
-12 -25 13 -27 12 -34 -13 -4 -14 -6 -31 -5 -38 1 -6 -3 -14 -9 -18 -6 -4 -10
6 -10 24 0 31 -14 42 -23 19 -4 -10 -8 -9 -16 2 -9 13 -11 11 -11 -6 0 -33
-24 -48 -49 -32 -12 7 -21 17 -21 23 0 5 -4 4 -9 -4 -15 -23 -80 4 -87 37 -3
15 -7 33 -10 40 -2 6 1 12 6 12 23 0 7 17 -26 29 -34 12 -35 14 -18 32 10 11
30 19 49 19 19 0 39 8 50 20 19 21 45 26 61 11 5 -6 44 0 99 14 110 29 115 29
115 8z m-1572 -104 c34 -18 52 -34 52 -49 0 -7 8 -9 20 -5 11 3 20 2 20 -3 0
-6 7 -13 16 -16 16 -6 44 15 44 33 0 6 14 11 30 11 17 0 30 5 30 10 0 6 19 9
44 8 24 -2 43 -4 41 -6 -2 -2 13 -18 33 -37 l37 -33 -17 -36 c-10 -20 -15 -42
-12 -50 3 -8 1 -23 -5 -34 -9 -16 -25 -22 -86 -27 -54 -5 -75 -11 -75 -21 0
-8 -9 -14 -20 -14 -11 0 -20 -6 -20 -14 0 -20 17 -29 24 -14 5 10 7 10 12 1 7
-15 44 -17 44 -3 0 6 9 10 20 10 11 0 20 -4 20 -9 0 -5 9 -13 20 -16 11 -3 20
-12 20 -20 0 -7 6 -16 13 -19 6 -3 2 -3 -10 0 -18 4 -23 1 -23 -15 0 -12 5
-21 10 -21 6 0 10 -7 10 -15 0 -9 9 -15 23 -15 13 0 17 -3 11 -8 -18 -11 -1
-102 22 -119 25 -18 32 -17 58 12 13 14 28 25 35 25 12 0 13 3 15 50 0 17 -2
30 -6 30 -10 0 -10 41 -2 93 6 35 8 37 45 37 34 0 39 -3 39 -24 0 -13 7 -26
15 -30 9 -3 25 -21 36 -41 20 -34 51 -46 64 -25 4 6 11 7 18 3 7 -4 4 -9 -9
-14 -16 -6 -15 -9 14 -19 19 -7 37 -23 43 -37 12 -33 11 -83 -2 -83 -5 0 -7
-4 -4 -10 3 -5 1 -11 -4 -11 -6 -1 -20 -3 -31 -4 -11 -1 -25 -3 -31 -4 -6 0 4
-15 22 -32 24 -23 29 -33 20 -39 -9 -5 -10 -10 -2 -14 6 -4 11 -2 11 3 0 6 18
11 40 11 l40 0 0 40 c0 22 4 40 8 40 5 0 19 9 32 20 13 11 27 20 32 20 11 0
48 -38 48 -49 0 -4 -11 -25 -25 -45 -14 -20 -25 -42 -25 -49 0 -7 -7 -21 -15
-31 -8 -10 -12 -23 -9 -27 3 -5 2 -14 -2 -21 -5 -8 -10 -6 -16 8 -7 16 -8 15
-4 -5 4 -21 -6 -50 -74 -206 -10 -22 -21 -51 -25 -65 -4 -14 -11 -29 -15 -35
-4 -5 -13 -27 -19 -47 -7 -21 -17 -38 -23 -38 -5 0 -8 -6 -6 -12 3 -7 -9 -49
-25 -93 -16 -44 -33 -98 -39 -120 -5 -22 -12 -47 -16 -55 -7 -19 -9 -31 -18
-110 -5 -56 -3 -73 16 -118 16 -38 20 -55 12 -65 -8 -10 -7 -20 6 -39 56 -83
72 -105 96 -127 14 -14 26 -31 26 -39 0 -11 -5 -9 -19 6 -10 12 -22 22 -27 22
-4 0 -3 -5 4 -12 17 -17 15 -31 -3 -24 -9 3 -18 -1 -21 -9 -4 -8 -14 -15 -23
-15 -10 0 -26 -7 -37 -16 -19 -15 -18 -15 3 -9 12 3 24 2 27 -4 5 -7 -40 -26
-52 -22 -1 1 -28 -12 -60 -27 -31 -16 -77 -34 -102 -41 -68 -20 -150 -53 -163
-65 -25 -24 -114 -83 -150 -99 -20 -9 -56 -20 -80 -23 -23 -4 -73 -22 -112
-39 -38 -18 -86 -36 -105 -40 -45 -10 -95 -32 -147 -67 -23 -16 -49 -28 -57
-28 -18 0 -84 -56 -76 -63 3 -3 37 13 75 37 81 49 152 80 227 100 29 8 81 26
116 40 34 13 62 20 62 15 0 -5 11 -9 25 -9 17 0 23 4 19 14 -4 10 5 16 26 21
38 8 109 47 143 79 34 32 71 52 131 71 55 18 69 15 28 -6 -32 -17 -46 -30 -50
-48 -2 -8 -12 -25 -23 -39 -10 -14 -19 -32 -19 -41 0 -9 -9 -27 -20 -41 -11
-14 -20 -31 -20 -37 0 -7 -6 -13 -13 -13 -11 0 -47 -97 -47 -128 0 -7 -5 -12
-10 -12 -6 0 -15 -11 -20 -25 -5 -14 -17 -28 -25 -31 -8 -4 -15 -10 -15 -16 0
-5 -11 -24 -24 -41 -13 -18 -29 -50 -36 -72 -7 -22 -18 -44 -24 -50 -7 -5 -29
-37 -49 -70 -23 -38 -50 -68 -72 -79 -31 -17 -35 -24 -35 -58 0 -31 -4 -38
-19 -38 -11 0 -23 -4 -26 -10 -3 -5 -16 -10 -29 -10 -13 0 -31 -12 -44 -30
-13 -16 -31 -30 -42 -30 -15 0 -20 -7 -20 -25 0 -18 -5 -25 -19 -25 -24 0 -47
-26 -29 -33 8 -3 2 -9 -14 -16 -21 -8 -28 -17 -28 -36 0 -16 -4 -24 -10 -20
-19 12 2 185 21 185 5 0 9 11 9 25 0 14 4 25 8 25 4 0 14 20 21 45 7 25 16 45
20 45 3 0 15 18 25 40 10 22 27 47 38 56 10 10 18 25 18 36 0 10 3 18 8 18 11
0 42 59 42 80 0 22 26 44 54 45 15 0 24 10 32 33 6 18 17 42 24 53 15 20 50
26 50 9 0 -16 37 -12 54 6 20 20 20 34 1 34 -8 0 -15 -4 -15 -10 0 -5 -18 -10
-40 -10 -22 0 -40 5 -40 10 0 6 18 10 40 10 30 0 40 4 40 16 0 10 5 14 15 10
19 -7 55 14 55 32 0 8 7 30 17 49 14 30 14 36 2 44 -8 5 -18 8 -24 8 -5 0 -4
-3 3 -6 6 -2 12 -13 12 -24 0 -16 -3 -17 -25 -7 -13 6 -22 15 -19 19 10 18
-24 8 -87 -23 -35 -17 -67 -36 -70 -41 -4 -5 -19 -7 -35 -3 -22 6 -25 9 -13
17 12 7 11 9 -3 9 -25 0 -48 -11 -42 -21 3 -5 -2 -6 -10 -3 -9 3 -16 1 -16 -5
0 -6 -7 -11 -15 -11 -8 0 -15 -5 -15 -10 0 -16 -42 -70 -51 -65 -4 3 -5 -5 -2
-16 4 -14 0 -25 -11 -31 -9 -5 -16 -14 -16 -21 0 -7 -11 -24 -25 -39 -14 -15
-25 -34 -25 -43 0 -8 -5 -15 -11 -15 -15 0 -69 -52 -69 -67 0 -7 -6 -13 -13
-13 -7 0 -24 -18 -37 -39 -14 -21 -28 -37 -32 -34 -4 2 -5 -3 -2 -11 3 -9 1
-16 -5 -16 -6 0 -11 -12 -11 -26 0 -14 -4 -23 -9 -20 -5 3 -8 -5 -8 -19 0 -30
-42 -155 -60 -176 -7 -8 -13 -32 -13 -51 0 -20 -7 -49 -15 -64 -8 -16 -12 -37
-9 -47 3 -10 -2 -27 -11 -37 -14 -15 -14 -21 -4 -38 11 -18 10 -24 -5 -40 -9
-11 -13 -22 -8 -23 5 -2 7 -21 4 -41 -2 -23 -8 -35 -15 -31 -5 3 -7 2 -4 -3 3
-6 -1 -79 -8 -163 -8 -83 -14 -188 -14 -231 0 -80 -20 -241 -31 -250 -3 -3
-12 -32 -19 -65 -16 -74 -34 -118 -26 -65 21 158 47 305 54 314 5 6 12 104 15
218 8 228 33 411 85 610 29 111 74 260 91 303 22 54 19 70 -7 44 -12 -12 -10
1 17 119 6 23 10 51 10 61 0 10 9 38 19 62 10 24 22 66 26 93 5 36 12 50 26
53 10 3 19 12 19 20 0 8 11 24 25 35 15 11 25 30 25 45 0 16 7 27 20 30 11 3
17 9 14 14 -3 5 4 9 16 9 17 0 20 4 15 20 -5 15 -2 20 12 22 10 0 23 2 29 2
13 2 84 49 84 56 0 3 11 18 25 34 14 16 25 38 25 49 0 11 3 17 7 14 3 -4 12
-2 19 4 10 9 15 7 20 -5 5 -14 8 -14 27 -1 12 8 29 15 38 15 9 0 22 7 29 15 7
8 19 15 26 15 8 0 37 15 66 33 29 18 69 40 88 47 19 8 39 20 43 27 4 7 15 13
22 13 8 0 15 5 15 11 0 6 -9 8 -20 4 -11 -4 -20 -2 -20 4 0 10 13 15 32 13 3
-1 11 4 17 11 8 10 2 16 -24 26 -41 14 -46 42 -12 59 l22 11 -22 0 c-22 1 -23
5 -23 76 l0 75 40 0 c29 0 40 -4 40 -15 0 -18 12 -19 28 -3 16 16 15 28 -3 28
-10 0 -15 10 -15 29 0 16 -3 43 -6 60 -6 28 -10 31 -45 31 -32 0 -39 -3 -39
-20 0 -16 -7 -20 -30 -20 -16 0 -30 -4 -30 -10 0 -5 -4 -10 -10 -10 -5 0 -10
11 -10 25 0 29 0 29 -47 10 -19 -8 -45 -15 -57 -15 -12 0 -28 -6 -35 -12 -11
-10 -14 -10 -18 0 -3 6 -14 12 -24 12 -11 0 -18 -4 -15 -9 10 -15 -22 -33 -44
-26 -12 4 -28 22 -36 41 -8 19 -21 34 -28 34 -9 0 -13 8 -10 23 2 12 2 16 -2
10 -8 -19 -28 4 -43 50 -7 20 -17 37 -22 37 -12 0 -79 61 -79 72 0 4 7 8 15 8
11 0 15 11 15 40 0 22 -4 40 -10 40 -5 0 -10 18 -10 40 0 29 -4 40 -15 40 -11
0 -15 11 -15 40 0 33 -3 40 -20 40 -13 0 -20 -7 -20 -20 0 -22 15 -27 23 -7 3
6 6 -3 6 -20 1 -23 -4 -33 -14 -33 -8 0 -15 -4 -15 -10 0 -5 -5 -10 -11 -10
-5 0 -7 5 -4 10 3 6 -1 10 -9 10 -11 0 -16 -9 -16 -27 0 -14 3 -24 6 -20 6 6
34 -16 34 -27 0 -3 -25 -6 -55 -6 -40 0 -57 -4 -61 -15 -4 -10 -20 -15 -45
-15 -28 0 -39 4 -39 15 0 8 -7 15 -15 15 -11 0 -15 12 -15 49 0 47 -17 81 -41
81 -5 0 -9 7 -9 15 0 8 -9 15 -19 15 -16 0 -20 11 -26 80 -5 58 -11 80 -21 80
-9 0 -14 11 -14 30 0 28 3 30 36 30 25 0 41 -7 55 -22 22 -28 24 -38 4 -38
-29 0 -15 -20 24 -36 22 -8 42 -22 45 -30 3 -8 15 -14 26 -14 17 0 20 -6 20
-39 0 -23 -5 -41 -12 -43 -8 -3 -4 -9 9 -17 34 -18 63 16 63 73 0 36 5 49 25
64 18 14 25 30 25 53 0 18 7 41 17 51 11 12 12 18 4 18 -8 0 -7 5 3 16 9 8 19
26 22 40 3 13 10 24 15 24 5 0 9 15 9 34 0 56 8 66 51 66 21 0 39 -4 39 -9 0
-5 69 -9 160 -8 l160 1 0 39 0 40 73 -7 c39 -4 80 -9 90 -12 9 -3 17 -1 17 5
0 6 -11 11 -25 11 -26 0 -75 42 -75 65 0 8 9 15 20 15 13 0 20 7 20 20 0 22
-15 27 -23 8 -3 -7 -6 20 -6 60 -1 46 -5 71 -11 67 -5 -3 -7 0 -4 8 7 18 -54
80 -72 73 -8 -3 -11 0 -7 10 6 16 83 20 83 4 0 -5 14 -10 30 -10 21 0 30 5 30
16 0 9 5 12 12 8 7 -4 8 -3 4 5 -4 6 -12 9 -17 6 -5 -4 -21 3 -34 14 -23 17
-24 20 -8 24 10 3 0 3 -22 0 -22 -2 -48 -7 -57 -10 -14 -3 -18 2 -18 21 0 15
-8 30 -20 36 -18 10 -19 13 -5 26 8 9 16 34 16 57 1 23 4 33 6 21 2 -12 16
-27 31 -35z m-2052 -1229 c20 0 24 -5 24 -30 0 -16 4 -30 9 -30 5 0 21 14 34
30 14 17 29 30 33 30 5 0 18 12 29 27 16 18 26 24 36 17 8 -5 18 -9 24 -9 12
0 35 -44 35 -66 0 -28 -41 -46 -102 -46 -48 0 -61 -4 -78 -24 l-20 -24 -19 23
c-11 12 -29 22 -40 22 -18 0 -21 7 -23 43 -2 62 2 88 15 102 10 10 13 5 15
-26 3 -34 6 -39 28 -39z m5554 -206 c0 -14 -7 -32 -15 -40 -8 -8 -19 -23 -25
-32 -8 -15 -11 -15 -20 -2 -9 13 -14 7 -11 -12 0 -4 -10 -10 -24 -14 -14 -3
-22 -10 -19 -16 3 -5 -3 -19 -13 -31 -11 -12 -23 -30 -26 -40 -5 -14 -59 -46
-87 -52 -3 0 -29 -9 -58 -19 -48 -16 -53 -21 -49 -42 4 -20 -1 -25 -29 -30
-20 -4 -31 -11 -27 -17 3 -6 1 -7 -5 -3 -7 4 -12 1 -12 -8 0 -9 -7 -16 -15
-16 -8 0 -42 -18 -76 -40 -34 -22 -69 -40 -78 -40 -10 0 -5 8 14 20 17 11 33
20 37 20 11 0 168 121 168 129 0 9 66 41 85 41 18 0 225 205 251 248 20 35 34
33 34 -4z m-2886 -320 c3 -8 14 -14 25 -14 11 0 44 -11 73 -24 54 -24 168 -49
223 -48 35 0 147 16 224 31 65 13 83 5 44 -20 -34 -23 -47 -24 -39 -4 7 20
-23 20 -52 -1 -12 -8 -26 -13 -31 -10 -4 3 -42 -2 -82 -10 -89 -19 -145 -23
-142 -9 1 6 -10 11 -23 11 -13 1 -22 -2 -19 -6 3 -4 -1 -10 -9 -13 -8 -3 -17
1 -20 9 -3 8 -13 14 -21 14 -9 0 -13 5 -9 11 4 8 -3 9 -24 4 -26 -5 -34 -2
-53 25 -14 18 -29 28 -37 25 -8 -3 -21 0 -28 6 -11 9 -14 8 -14 -2 0 -21 -20
12 -20 33 0 20 25 14 34 -8z m1006 -14 c0 -5 -12 -13 -26 -16 -17 -4 -23 -11
-19 -21 4 -11 0 -14 -14 -10 -11 2 -32 -3 -48 -13 -16 -9 -45 -20 -64 -23 -19
-3 -56 -10 -82 -15 -44 -8 -50 -7 -58 12 -8 18 -9 18 -4 -5 3 -17 -1 -31 -11
-40 -13 -11 -15 -6 -12 42 l3 54 50 1 c28 1 73 8 100 17 78 25 185 35 185 17z
m-2705 -80 c10 -11 24 -20 32 -20 12 0 63 -91 63 -112 0 -5 -12 -21 -27 -35
-16 -14 -27 -29 -26 -33 1 -4 -8 -8 -20 -8 -12 0 -35 -6 -52 -13 -38 -15 -75
-12 -99 9 -18 16 -19 16 -14 -15 2 -18 1 -30 -4 -27 -4 3 -8 12 -8 20 0 8 -8
14 -17 14 -42 1 -73 54 -34 57 18 1 28 9 80 53 10 8 21 29 24 47 7 38 44 83
67 83 9 0 25 -9 35 -20z m1926 -246 c10 -12 10 -25 2 -55 -6 -21 -6 -39 -2
-39 5 0 12 12 15 26 l7 25 28 -27 c16 -15 26 -30 24 -34 -3 -4 -6 -27 -9 -51
-5 -52 -23 -130 -42 -179 -8 -19 -16 -51 -18 -70 -7 -51 -38 -164 -47 -170 -5
-3 -11 -26 -15 -50 -7 -44 -27 -92 -51 -117 -6 -7 -14 -26 -18 -43 -4 -16 -13
-30 -21 -30 -9 0 -14 -12 -14 -36 0 -29 -8 -44 -35 -71 -19 -19 -35 -38 -35
-43 0 -6 -4 -10 -10 -10 -5 0 -10 9 -10 19 0 31 -16 33 -34 6 -16 -24 -15 -25
4 -25 27 0 25 -14 -5 -38 -14 -11 -25 -25 -25 -31 0 -6 -7 -11 -15 -11 -11 0
-15 -11 -15 -40 0 -22 -4 -40 -10 -40 -5 0 -10 -18 -10 -40 0 -29 -4 -40 -15
-40 -8 0 -15 -7 -15 -15 0 -8 -4 -15 -9 -15 -12 0 -41 -29 -41 -40 0 -5 12
-11 28 -13 21 -3 18 -4 -12 -6 -24 0 -46 5 -58 16 -19 17 -24 48 -10 57 5 3 7
19 4 36 -3 19 1 38 10 48 8 9 23 51 33 92 10 41 22 79 27 85 4 5 8 24 8 42 0
18 5 33 10 33 6 0 10 10 10 22 0 12 8 30 17 40 20 22 42 98 43 146 0 17 5 32
10 32 6 0 10 9 10 19 0 11 5 23 10 26 6 3 10 15 10 25 0 11 13 44 29 74 16 29
32 68 35 86 2 18 9 37 15 43 6 6 11 19 11 29 0 10 5 18 10 18 6 0 10 9 10 19
0 19 84 190 128 261 12 19 22 43 22 53 0 21 13 22 31 1z m-1577 -731 c-3 -27
-7 -97 -9 -158 -2 -72 -10 -136 -24 -185 -11 -41 -24 -117 -27 -170 -4 -59
-15 -119 -30 -160 -13 -36 -28 -99 -35 -140 -6 -41 -15 -85 -20 -98 -5 -13 -9
-52 -9 -88 0 -36 -4 -95 -9 -132 -6 -37 -12 -141 -15 -232 -3 -91 -9 -193 -12
-227 -4 -39 -2 -86 6 -125 10 -47 11 -63 2 -66 -7 -2 -12 -11 -12 -19 0 -10
-6 -13 -16 -9 -9 4 -23 1 -30 -5 -11 -9 -14 -8 -14 4 0 8 7 17 15 20 14 6 16
69 2 83 -9 9 -47 -25 -47 -43 0 -7 -4 -13 -10 -13 -5 0 -10 -9 -10 -20 0 -11
-6 -38 -12 -60 -11 -34 -17 -40 -40 -40 -45 0 -42 51 8 121 19 27 34 55 34 63
0 8 9 21 20 29 23 16 27 60 14 147 -7 42 -14 57 -32 66 -19 9 -20 13 -8 17 23
9 20 54 -4 67 -25 14 -35 52 -20 80 10 18 9 29 -6 56 -23 42 -48 44 -85 5 -27
-28 -39 -30 -39 -6 0 21 37 55 59 55 26 0 38 25 21 45 -10 13 -14 13 -27 0 -8
-8 -21 -15 -28 -15 -15 0 -42 40 -28 40 4 0 -1 7 -11 15 -34 26 -10 133 69
300 12 28 33 84 45 125 13 41 27 81 33 88 6 7 12 30 14 50 3 37 26 127 44 170
5 13 7 33 4 45 -3 14 4 32 21 52 15 17 24 22 20 13 -3 -10 -9 -26 -12 -35 -8
-21 79 109 125 187 51 87 100 150 116 150 13 0 14 -9 9 -47z m-793 -193 c3
-159 0 -233 -10 -243 -6 -6 -11 -19 -11 -29 0 -12 -8 -18 -23 -18 -17 0 -27
11 -45 49 -12 27 -21 64 -20 82 1 30 2 29 8 -11 l7 -45 1 43 c1 23 7 42 12 42
6 0 9 15 9 33 l-1 32 -8 -30 c-8 -30 -8 -30 -9 8 -1 23 3 36 11 35 6 -2 15 16
20 40 8 35 13 42 34 42 20 0 24 -5 25 -30z m3521 -185 c16 -143 15 -184 -2
-195 -8 -5 -18 -6 -22 -4 -4 3 -8 -1 -8 -9 0 -26 -34 -58 -72 -66 -20 -5 -39
-7 -41 -4 -8 7 39 53 54 53 8 0 23 7 34 15 18 14 19 29 21 203 0 103 2 194 4
202 4 20 17 -60 32 -195z m-4809 -142 c24 -37 43 -103 38 -132 -2 -8 3 -20 11
-25 23 -19 47 -101 41 -143 -5 -36 3 -79 23 -127 5 -13 4 -17 -4 -12 -7 4 -5
-9 5 -31 9 -21 17 -70 19 -110 2 -40 8 -81 13 -92 9 -16 7 -25 -13 -45 -31
-34 -58 -33 -95 5 -24 24 -31 39 -31 70 0 21 -4 39 -10 39 -5 0 -10 12 -10 27
0 14 -6 34 -14 42 -20 24 -36 102 -36 179 0 53 -4 71 -15 76 -19 7 -21 127 -3
156 10 15 10 22 0 32 -30 30 0 127 39 128 9 0 28 -17 42 -37z m647 -148 c0 -9
8 -19 18 -22 22 -9 47 -33 33 -33 -6 0 -11 -21 -11 -49 0 -70 -10 -111 -27
-111 -13 0 -14 -13 -8 -80 l7 -80 -26 0 c-27 0 -36 15 -13 23 16 5 12 128 -6
139 -17 11 -17 214 1 211 6 -2 12 2 12 7 0 6 5 10 10 10 6 0 10 -7 10 -15z
m-154 -70 c12 -12 15 -37 12 -120 -2 -58 0 -105 5 -105 4 0 7 -6 7 -14 0 -7 7
-19 15 -26 8 -7 15 -23 15 -35 0 -23 -20 -33 -79 -41 -30 -3 -59 -44 -31 -44
6 0 10 -20 10 -45 0 -49 -25 -85 -59 -85 -11 0 -23 -5 -26 -10 -4 -7 -13 -4
-23 9 -10 10 -26 30 -37 43 -16 19 -20 38 -20 105 0 71 3 84 23 106 13 13 22
28 20 33 -3 12 9 49 33 101 10 24 19 47 19 53 0 5 7 10 15 10 8 0 15 6 15 13
0 19 37 50 49 42 6 -3 11 1 11 9 0 20 7 20 26 1z"/>
<path d="M2800 4255 c0 -8 -4 -15 -10 -15 -5 0 -10 -18 -10 -40 0 -22 5 -40
10 -40 6 0 10 -11 10 -25 0 -22 3 -24 40 -22 30 1 40 6 40 20 0 13 9 17 43 18
29 2 34 3 15 6 -25 4 -28 8 -28 44 0 28 -4 39 -15 39 -8 0 -15 7 -15 15 0 11
-11 15 -40 15 -29 0 -40 -4 -40 -15z"/>
<path d="M3247 3953 c-5 -59 16 -83 74 -83 28 0 39 -4 39 -15 0 -9 9 -15 25
-15 14 0 25 -4 25 -10 0 -5 7 -10 15 -10 11 0 15 12 15 50 l0 50 -40 0 -40 0
0 40 0 40 -54 0 -54 0 -5 -47z"/>
<path d="M273 7667 c3 -13 -91 -48 -157 -57 -45 -7 -63 -6 -81 6 -12 8 -25 11
-28 7 -4 -3 -7 -37 -7 -75 l0 -68 34 0 c19 0 47 -5 63 -11 15 -6 43 -11 61
-11 17 0 35 -4 38 -9 3 -5 27 -9 55 -9 38 0 52 4 61 20 16 25 68 27 103 4 14
-9 34 -14 45 -11 10 3 20 1 22 -5 8 -23 304 -9 320 16 4 7 13 5 25 -5 10 -9
29 -20 43 -24 30 -9 300 -27 350 -24 99 7 213 0 236 -14 16 -10 176 1 187 12
6 6 12 35 15 65 4 48 1 57 -21 80 -20 20 -36 26 -72 26 -31 0 -45 -4 -45 -14
0 -8 -16 -16 -40 -20 -22 -3 -40 -10 -40 -15 0 -15 -73 -19 -105 -5 -16 7 -55
17 -85 23 -30 6 -89 18 -130 27 -111 23 -160 28 -160 15 0 -6 -18 -11 -40 -11
-22 0 -40 5 -40 10 0 6 -47 10 -120 10 -87 0 -120 3 -120 12 0 9 -3 9 -12 0
-7 -7 -25 -12 -40 -12 -18 0 -28 -5 -28 -15 0 -24 -24 -17 -55 15 -15 16 -50
37 -76 45 -27 9 -51 21 -55 26 -7 12 -104 9 -101 -4z"/>
<path d="M1884 7482 c-19 -2 -49 -18 -74 -39 l-42 -36 26 -14 c35 -18 140 -21
194 -5 l43 13 -38 38 c-41 40 -60 48 -109 43z"/>
<path d="M7616 7360 c-27 -27 -52 -50 -57 -50 -5 0 -9 -13 -9 -28 0 -33 26
-72 37 -57 12 15 33 17 48 5 16 -14 39 13 33 38 -3 10 1 27 8 37 15 20 19 59
6 51 -5 -3 -6 8 -4 25 2 16 0 29 -5 29 -5 0 -30 -22 -57 -50z"/>
<path d="M9323 6663 c20 -2 37 -8 37 -13 0 -5 17 -11 38 -13 20 -2 12 -4 -20
-3 -32 1 -58 -3 -58 -9 -2 -24 -53 -35 -165 -36 -63 -1 -115 -5 -115 -10 0 -5
-19 -9 -42 -9 -28 0 -38 -3 -30 -9 8 -5 27 -7 43 -6 16 1 29 -1 29 -6 0 -5
-18 -9 -40 -9 -33 0 -40 -3 -40 -20 0 -17 7 -20 40 -20 22 0 40 -4 40 -10 0
-6 -39 -10 -98 -10 -86 0 -99 -2 -110 -20 -14 -23 -32 -26 -32 -6 0 10 -14 16
-42 19 l-43 4 43 1 43 2 -3 53 -3 52 -37 3 c-31 3 -38 7 -39 25 -1 17 -5 13
-16 -15 -12 -29 -21 -38 -39 -38 -13 0 -24 5 -24 10 0 6 -11 10 -24 10 -39 0
-56 11 -56 34 0 21 -7 24 -87 33 -49 5 -92 6 -98 2 -5 -5 5 -9 23 -9 37 0 37
1 15 -45 -15 -31 -21 -35 -54 -35 -27 0 -39 5 -42 18 -3 9 -5 -9 -6 -40 -1
-51 -3 -58 -21 -58 -17 0 -20 -7 -20 -40 0 -38 -2 -40 -30 -40 -28 0 -30 -2
-30 -40 0 -36 -2 -40 -25 -40 -22 0 -25 -4 -25 -40 l0 -40 -72 1 c-40 0 -96 4
-124 8 -41 6 -51 4 -47 -6 3 -7 -8 -24 -25 -37 -27 -23 -29 -29 -24 -76 4 -41
2 -50 -12 -50 -9 0 -16 -7 -16 -15 0 -11 -11 -15 -40 -15 -22 0 -40 -4 -40
-10 0 -5 -18 -10 -40 -10 -29 0 -40 -4 -40 -15 0 -10 -10 -15 -30 -15 -20 0
-30 5 -30 15 0 8 -4 15 -10 15 -5 0 -10 -7 -10 -15 0 -12 -18 -15 -105 -15
l-105 0 0 -35 c0 -21 -6 -37 -16 -43 -11 -6 -13 -11 -5 -16 6 -4 11 -2 11 3 0
6 6 11 13 11 18 0 38 -39 39 -76 1 -22 12 -38 51 -69 27 -22 56 -54 63 -72 8
-17 25 -48 38 -67 13 -20 29 -58 36 -86 8 -32 24 -63 44 -83 46 -48 185 -261
234 -357 15 -30 30 -56 35 -58 4 -2 7 -9 7 -16 0 -6 13 -26 30 -44 16 -18 30
-35 30 -37 0 -3 0 -8 0 -12 1 -5 8 4 16 20 16 30 45 35 64 12 7 -8 19 -15 27
-15 11 0 13 -7 9 -25 -6 -23 1 -30 26 -26 10 1 21 -39 13 -47 -3 -4 -10 0 -14
7 -6 9 -11 10 -15 2 -4 -6 -18 -11 -31 -11 -13 0 -27 -4 -30 -10 -10 -17 -25
-11 -25 10 0 11 -4 20 -10 20 -13 0 -13 -6 0 -29 5 -10 12 -33 14 -52 11 -68
42 -173 54 -177 7 -2 12 -9 12 -16 0 -15 36 -46 44 -39 3 4 6 1 6 -5 0 -7 7
-12 15 -12 29 0 82 -36 141 -95 98 -99 324 -259 454 -321 104 -50 157 -77 215
-109 28 -15 120 -54 205 -86 85 -33 159 -64 164 -69 6 -6 20 -10 32 -10 13 0
25 -4 28 -9 3 -5 18 -12 33 -16 15 -3 53 -20 86 -36 32 -16 61 -29 63 -29 2 0
4 248 4 550 0 534 -1 551 -20 570 -11 11 -22 32 -25 47 -4 16 -11 36 -16 47
-14 25 14 57 33 38 7 -7 16 -12 20 -12 4 0 8 354 8 786 0 626 -3 788 -13 797
-50 46 -58 51 -66 38 -6 -9 -11 -10 -15 -2 -4 6 -2 11 3 11 6 0 11 6 11 14 0
12 -22 14 -117 14 -65 -1 -101 -3 -80 -5z m-743 -93 c0 -5 14 -10 30 -10 26 0
30 -4 30 -28 l0 -29 -117 -8 c-188 -12 -197 -12 -201 6 -3 14 10 18 77 24 59
5 81 11 81 21 0 10 12 14 40 14 22 0 40 5 40 10 0 6 5 10 10 10 6 0 10 -4 10
-10z m-180 -1600 c0 -5 7 -10 15 -10 23 0 47 -68 39 -113 -4 -28 -12 -41 -30
-47 -23 -9 -34 -40 -14 -40 6 0 10 -9 10 -20 0 -11 -4 -20 -10 -20 -5 0 -10 9
-10 21 0 16 -4 19 -17 14 -10 -3 -43 -9 -74 -12 -44 -4 -63 -1 -84 13 -20 13
-23 19 -13 26 10 6 10 10 1 16 -10 6 -43 82 -43 97 0 2 15 6 33 10 57 12 113
36 128 56 14 20 69 27 69 9z m629 -49 c29 -16 141 -14 268 4 41 6 58 4 78 -9
23 -15 26 -22 22 -66 -2 -27 -12 -61 -22 -76 -13 -21 -17 -45 -16 -102 1 -42
5 -81 9 -89 10 -17 -8 -143 -20 -143 -5 0 -22 7 -38 15 -27 14 -30 20 -30 68
0 64 -9 99 -23 90 -6 -4 -8 2 -4 16 5 20 0 25 -33 38 -25 10 -43 25 -51 44 -6
16 -15 29 -19 29 -5 0 -15 6 -22 13 -7 6 -35 23 -60 37 -31 16 -43 27 -35 32
8 5 4 8 -11 8 -13 0 -20 4 -17 10 3 6 1 10 -6 10 -15 0 -38 30 -39 52 0 25 37
36 69 19z"/>
</g>
</svg>
